<svg xmlns="http://www.w3.org/2000/svg" xmlns:xlink="http://www.w3.org/1999/xlink" preserveAspectRatio="xMidYMid" width="12" height="12" viewBox="0 0 12 12">
  <defs>
    <style>
      .cls-1 {
        fill: #fcbc35;
        fill-rule: evenodd;
      }
    </style>
  </defs>
  <path d="M9.819,9.818 C8.828,10.790 7.495,11.400 5.990,11.400 C4.505,11.400 3.152,10.790 2.181,9.818 C1.210,8.828 0.600,7.495 0.600,5.990 C0.600,4.505 1.210,3.152 2.181,2.181 C3.152,1.209 4.505,0.600 5.990,0.600 C7.495,0.600 8.828,1.209 9.819,2.181 C10.790,3.152 11.400,4.505 11.400,5.990 C11.400,7.495 10.790,8.828 9.819,9.818 ZM7.591,5.952 L5.362,3.724 C5.362,3.724 5.362,3.724 5.362,3.724 L5.362,3.724 C5.343,3.705 5.305,3.705 5.266,3.724 L4.790,4.219 L6.524,5.952 C6.543,5.971 6.543,6.009 6.524,6.047 L4.790,7.781 L5.266,8.276 C5.305,8.295 5.343,8.295 5.362,8.276 L7.591,6.047 C7.609,6.009 7.609,5.971 7.591,5.952 Z" class="cls-1"/>
</svg>
